<!-- by TradingView --><svg width="56" height="56" viewBox="0 0 56 56" xmlns="http://www.w3.org/2000/svg"><path fill="#F0F3FA" d="M0 0h56v56H0z"/><path d="m27.99 13.37.1-.08.93-1c.2-.21.43-.27.7-.18.15.05.35.2.59.43 9.38 9.24 14.37 14.15 14.98 14.7l.67.59c.05.04.05.1 0 .14L29.74 43.91c-.13.12-.25.12-.38 0l-1.21-1.2c-.13-.12-.27-.12-.4 0l-1.18 1.17c-.14.13-.28.13-.43 0L10.08 28.1c-.1-.1-.1-.21 0-.32l15.9-15.61a.58.58 0 0 1 .43-.17c.17 0 .3.07.42.2.53.6.91 1 1.16 1.17Z" fill="url(#a)"/><path d="M31.56 26.72c-.07.02-.1 0-.1-.08V23.1c0-.06.02-.1.08-.12l.41-.14c.09-.02.13-.08.13-.16v-1.15a.24.24 0 0 0-.1-.2c-.14-.11-.3-.2-.48-.27a8.3 8.3 0 0 0-6.9.31.31.31 0 0 0-.2.3v1.26c0 .1.05.14.15.11l.57-.19c.1-.03.14 0 .14.13v9.96c0 .13-.05.17-.17.13l-.57-.2c-.09-.03-.13 0-.13.1v1.34c0 .1.04.18.13.22.8.4 1.46.67 2.31.82.13.02.17-.03.17-.16v-12.8c0-.14.27-.38.4-.38h1.92c.14 0 .2.24.2.38v4.77c0 .19-.09.3-.27.34l-1.02.24a.16.16 0 0 0-.1.08.19.19 0 0 0-.01.19c.03.05.09.1.19.12l1.06.32c.1.04.14.1.14.2v6.56c0 .19.09.25.27.2l2.02-.68c.2-.07.2-.2.2-.41v-1.25c.01-.05.02-.08-.06-.08h-.35c-.08 0-.12-.04-.12-.12v-3.55c0-.11.05-.15.16-.11l4.4 1.5c.12.04.16.12.1.24-.3.6-.6 1.17-.92 1.68a7.8 7.8 0 0 1-4.29 3.36 8.56 8.56 0 0 1-10.94-5.22c-.07-.2-.21-.27-.42-.2l-.88.3c-.2.06-.25.18-.18.37a10.2 10.2 0 0 0 9.96 6.76 10.17 10.17 0 0 0 7.55-3.9 10.62 10.62 0 0 0 1.98-4.11c.04-.18-.03-.3-.2-.34-2.3-.6-4.33-1.09-6.06-1.48-.12-.02-.18-.13-.17-.3 0-.09.04-.13.12-.15l6.04-1.42c.22-.05.3-.2.24-.42-.91-3.3-2.8-5.62-5.7-6.95a9.99 9.99 0 0 0-6.69-.6 9.99 9.99 0 0 0-6.97 6.24c-.02.04 0 .07.04.09l1.25.42c.04.01.06 0 .08-.04a8.78 8.78 0 0 1 5.78-5.25 8.12 8.12 0 0 1 6.12.56c1.9.97 3.3 2.47 4.2 4.5.04.09.04.18 0 .27a.32.32 0 0 1-.2.18l-4.31 1.43Zm-13.17-.87c-.2 0-.3.08-.3.28l-.09 3.3c0 .18.09.28.28.29h.03c.34 0 .62-.04.86-.14s.36-.22.37-.37l.08-2.8c0-.14-.12-.27-.35-.38a2.1 2.1 0 0 0-.85-.18h-.03Z" fill="#F0F3FA"/><defs><linearGradient id="a" x1="28" y1="12" x2="28" y2="44" gradientUnits="userSpaceOnUse"><stop stop-color="#02659C"/><stop offset="1" stop-color="#024572"/></linearGradient></defs></svg>